<svg width="794" height="397" xmlns="http://www.w3.org/2000/svg" xmlns:xlink="http://www.w3.org/1999/xlink" overflow="hidden"><defs><clipPath id="clip0"><rect x="0" y="0" width="794" height="397"/></clipPath></defs><g clip-path="url(#clip0)"><rect x="0" y="0" width="794" height="397.083" fill="#FFFFFF"/><rect x="486.5" y="218.546" width="132" height="167.035" stroke="#5B9BD5" stroke-width="1.33361" stroke-miterlimit="8" fill="#D6DCE5"/><text font-family="Calibri,Calibri_MSFontService,sans-serif" font-weight="700" font-size="15" transform="matrix(1 0 0 1.00021 529.966 237)">Task(s)</text><text font-family="Calibri,Calibri_MSFontService,sans-serif" font-weight="400" font-size="13" transform="matrix(1 0 0 1.00021 524.052 253)">For patient</text><path d="M181 14.0029 283 14.0029 303 34.0072 283 54.0113 181 54.0113Z" fill="#70AD47" fill-rule="evenodd"/><text fill="#FFFFFF" font-family="Calibri,Calibri_MSFontService,sans-serif" font-weight="400" font-size="15" transform="matrix(1 0 0 1.00021 211.502 39)">Planning</text><path d="M27 14.0029 128 14.0029 148 34.0071 128 54.0113 27 54.0113Z" fill="#ED7D31" fill-rule="evenodd"/><text fill="#FFFFFF" font-family="Calibri,Calibri_MSFontService,sans-serif" font-weight="400" font-size="15" transform="matrix(1 0 0 1.00021 47.1092 39)">Assessment</text><path d="M336 14.0029 437 14.0029 457 34.0071 437 54.0113 336 54.0113Z" fill="#F2B800" fill-rule="evenodd"/><text fill="#FFFFFF" font-family="Calibri,Calibri_MSFontService,sans-serif" font-weight="400" font-size="15" transform="matrix(1 0 0 1.00021 347.47 39)">Order/Referral</text><path d="M492 10.0021 602.5 10.0021 613 20.5044 602.5 31.0065 492 31.0065Z" fill="#70AD47" fill-rule="evenodd"/><text fill="#FFFFFF" font-family="Calibri,Calibri_MSFontService,sans-serif" font-weight="400" font-size="15" transform="matrix(1 0 0 1.00021 516.21 26)">Monitoring</text><path d="M491 36.0076 601.5 36.0076 612 46.5098 601.5 57.012 491 57.012Z" fill="#5B9BD5" fill-rule="evenodd"/><text fill="#FFFFFF" font-family="Calibri,Calibri_MSFontService,sans-serif" font-weight="400" font-size="15" transform="matrix(1 0 0 1.00021 511.434 52)">Engagement</text><path d="M87.8335 183.539 87.8335 204.644 87.1667 204.644 87.1666 183.539ZM91.501 203.31 87.5002 211.313 83.4993 203.31Z"/><path d="M-0.000624294 0.333403-25.5363 0.333403-25.5363-32.9918 766.579-32.9918 766.579 1.73349 747.711 1.73349 747.711 1.06668 766.246 1.06668 765.912 1.40008 765.912-32.6584 766.246-32.325-25.2029-32.325-24.8695-32.6584-24.8695 0-25.2029-0.333403 0.000624294-0.333403ZM749.045 5.40092 741.043 1.40008 749.045-2.60076Z" transform="matrix(-1 0 0 1.00021 768.543 34.5073)"/><rect x="331" y="66.0139" width="132" height="157.033" stroke="#FFC000" stroke-width="4.00084" stroke-miterlimit="8" fill="#FFF2CC"/><text font-family="Calibri,Calibri_MSFontService,sans-serif" font-weight="700" font-size="15" transform="matrix(1 0 0 1.00021 345.633 85)">Service Request</text><text font-family="Calibri,Calibri_MSFontService,sans-serif" font-weight="400" font-size="13" transform="matrix(1 0 0 1.00021 369.305 101)">(SNOMED)</text><rect x="336" y="149.031" width="122" height="68.0143" fill="#FFE699"/><text font-family="Calibri,Calibri_MSFontService,sans-serif" font-weight="700" font-size="13" transform="matrix(1 0 0 1.00021 346.003 166)">Referral</text><text font-family="Calibri,Calibri_MSFontService,sans-serif" font-weight="400" font-size="13" transform="matrix(1 0 0 1.00021 346.003 181)">(to provider/org)</text><text font-family="Calibri,Calibri_MSFontService,sans-serif" font-weight="400" font-size="13" transform="matrix(1 0 0 1.00021 346.003 196)">Desired service +</text><text font-family="Calibri,Calibri_MSFontService,sans-serif" font-weight="400" font-size="13" transform="matrix(1 0 0 1.00021 346.003 211)">timeframe</text><rect x="336" y="109.023" width="122" height="33.0069" fill="#FFE699"/><text font-family="Calibri,Calibri_MSFontService,sans-serif" font-weight="700" font-size="13" transform="matrix(1 0 0 1.00021 345.41 123)">Exercise Rx</text><text font-family="Calibri,Calibri_MSFontService,sans-serif" font-weight="400" font-size="13" transform="matrix(1 0 0 1.00021 345.41 138)">(to patient)</text><rect x="486.5" y="66.514" width="132" height="139.029" stroke="#70AD47" stroke-width="1.33361" stroke-miterlimit="8" fill="#C5E0B4"/><text font-family="Calibri,Calibri_MSFontService,sans-serif" font-weight="700" font-size="15" transform="matrix(1 0 0 1.00021 509.715 85)">Observations</text><text font-family="Calibri,Calibri_MSFontService,sans-serif" font-weight="400" font-size="13" transform="matrix(1 0 0 1.00021 532.633 101)">(LOINC)</text><path d="M43.5 241.051 87.5 210.544 131.5 241.051 87.5 271.557Z" stroke="#ED7D31" stroke-width="1.33361" stroke-miterlimit="8" fill="#F8CBAD" fill-rule="evenodd"/><text font-family="Calibri,Calibri_MSFontService,sans-serif" font-weight="400" font-size="13" transform="matrix(1 0 0 1.00021 65.6062 234)">Meeting</text><text font-family="Calibri,Calibri_MSFontService,sans-serif" font-weight="400" font-size="13" transform="matrix(1 0 0 1.00021 57.1911 249)">Guidelines?</text><rect x="21" y="66.0139" width="132" height="117.025" stroke="#ED7D31" stroke-width="4.00084" stroke-miterlimit="8" fill="#F8CBAD"/><text font-family="Calibri,Calibri_MSFontService,sans-serif" font-weight="700" font-size="15" transform="matrix(1 0 0 1.00021 44.6051 85)">Observations</text><text font-family="Calibri,Calibri_MSFontService,sans-serif" font-weight="400" font-size="13" transform="matrix(1 0 0 1.00021 41.271 101)">USCDI v.4 (LOINC)</text><rect x="26" y="110.023" width="122" height="29.0061" fill="#FFAF79"/><text font-family="Calibri,Calibri_MSFontService,sans-serif" font-weight="400" font-size="13" transform="matrix(1 0 0 1.00021 36.4367 129)">Moderate/Vigorous</text><rect x="26" y="147.031" width="122" height="29.0061" fill="#FFAF79"/><text font-family="Calibri,Calibri_MSFontService,sans-serif" font-weight="400" font-size="13" transform="matrix(1 0 0 1.00021 65.1094 166)">Strength</text><rect x="176.5" y="66.514" width="132" height="216.045" stroke="#70AD47" stroke-width="1.33361" stroke-miterlimit="8" fill="#E2F0D9"/><text font-family="Calibri,Calibri_MSFontService,sans-serif" font-weight="700" font-size="15" transform="matrix(1 0 0 1.00021 211.749 85)">Care Plan</text><text font-family="Calibri,Calibri_MSFontService,sans-serif" font-weight="400" font-size="13" transform="matrix(1 0 0 1.00021 214.836 101)">(Free</text><text font-family="Calibri,Calibri_MSFontService,sans-serif" font-weight="400" font-size="13" transform="matrix(1 0 0 1.00021 241.508 101)">-</text><text font-family="Calibri,Calibri_MSFontService,sans-serif" font-weight="400" font-size="13" transform="matrix(1 0 0 1.00021 245.342 101)">text)</text><rect x="181" y="110.023" width="122" height="66.0139" fill="#C5E0B4"/><text font-family="Calibri,Calibri_MSFontService,sans-serif" font-weight="700" font-size="13" transform="matrix(1 0 0 1.00021 190.771 125)">Sustain:</text><text font-family="Calibri,Calibri_MSFontService,sans-serif" font-weight="400" font-size="13" transform="matrix(1 0 0 1.00021 190.771 140)">Reinforce &amp;</text><text font-family="Calibri,Calibri_MSFontService,sans-serif" font-weight="400" font-size="13" transform="matrix(1 0 0 1.00021 190.771 155)">encourage</text><text font-family="Calibri,Calibri_MSFontService,sans-serif" font-weight="400" font-size="13" transform="matrix(1 0 0 1.00021 190.771 170)">continued activity</text><rect x="181" y="183.038" width="122" height="92.0193" fill="#C5E0B4"/><text font-family="Calibri,Calibri_MSFontService,sans-serif" font-weight="700" font-size="13" transform="matrix(1 0 0 1.00021 191.438 196)">Improve:</text><text font-family="Arial,Arial_MSFontService,sans-serif" font-weight="400" font-size="13" transform="matrix(1 0 0 1.00021 191.438 211)">•</text><text font-family="Calibri,Calibri_MSFontService,sans-serif" font-weight="400" font-size="13" transform="matrix(1 0 0 1.00021 200.507 211)">motivations</text><text font-family="Arial,Arial_MSFontService,sans-serif" font-weight="400" font-size="13" transform="matrix(1 0 0 1.00021 191.438 226)">•</text><text font-family="Calibri,Calibri_MSFontService,sans-serif" font-weight="400" font-size="13" transform="matrix(1 0 0 1.00021 200.507 226)">supports</text><text font-family="Arial,Arial_MSFontService,sans-serif" font-weight="400" font-size="13" transform="matrix(1 0 0 1.00021 191.438 241)">•</text><text font-family="Calibri,Calibri_MSFontService,sans-serif" font-weight="400" font-size="13" transform="matrix(1 0 0 1.00021 200.507 241)">strategy</text><text font-family="Arial,Arial_MSFontService,sans-serif" font-weight="400" font-size="13" transform="matrix(1 0 0 1.00021 191.438 256)">•</text><text font-family="Calibri,Calibri_MSFontService,sans-serif" font-weight="400" font-size="13" transform="matrix(1 0 0 1.00021 200.507 256)">monitoring</text><text font-family="Arial,Arial_MSFontService,sans-serif" font-weight="400" font-size="13" transform="matrix(1 0 0 1.00021 191.438 271)">•</text><text font-family="Calibri,Calibri_MSFontService,sans-serif" font-weight="400" font-size="13" transform="matrix(1 0 0 1.00021 200.507 271)">follow</text><text font-family="Calibri,Calibri_MSFontService,sans-serif" font-weight="400" font-size="13" transform="matrix(1 0 0 1.00021 232.347 271)">-</text><text font-family="Calibri,Calibri_MSFontService,sans-serif" font-weight="400" font-size="13" transform="matrix(1 0 0 1.00021 236.181 271)">up</text><rect x="21.5001" y="304.564" width="132" height="81.017" stroke="#ED7D31" stroke-width="1.33361" stroke-miterlimit="8" fill="#F8CBAD"/><text font-family="Calibri,Calibri_MSFontService,sans-serif" font-weight="700" font-size="15" transform="matrix(1 0 0 1.00021 55.7741 323)">Condition</text><text font-family="Calibri,Calibri_MSFontService,sans-serif" font-weight="400" font-size="13" transform="matrix(1 0 0 1.00021 66.2763 339)">(ICD</text><text font-family="Calibri,Calibri_MSFontService,sans-serif" font-weight="400" font-size="13" transform="matrix(1 0 0 1.00021 87.7808 339)">-</text><text font-family="Calibri,Calibri_MSFontService,sans-serif" font-weight="400" font-size="13" transform="matrix(1 0 0 1.00021 91.6149 339)">10)</text><rect x="26" y="349.073" width="122" height="29.0061" fill="#FFAF79"/><text font-family="Calibri,Calibri_MSFontService,sans-serif" font-weight="400" font-size="13" transform="matrix(1 0 0 1.00021 52.19 360)">“Low Physical</text><text font-family="Calibri,Calibri_MSFontService,sans-serif" font-weight="400" font-size="13" transform="matrix(1 0 0 1.00021 65.5261 375)">Activity”</text><path d="M646 14.0029 748 14.0029 768 34.0072 748 54.0113 646 54.0113Z" fill="#A6A6A6" fill-rule="evenodd"/><text fill="#FFFFFF" font-family="Calibri,Calibri_MSFontService,sans-serif" font-weight="400" font-size="15" transform="matrix(1 0 0 1.00021 672.543 39)">Reporting</text><path d="M0-0.333403 2.66723-0.333403 2.66723 0.333403 0 0.333403ZM4.66765-0.333403 7.33487-0.333403 7.33487 0.333403 4.66765 0.333403ZM9.33529-0.333403 12.0025-0.333403 12.0025 0.333403 9.33529 0.333403ZM14.0029-0.333403 16.6702-0.333403 16.6702 0.333403 14.0029 0.333403ZM17.0225 1.98149 17.0225 4.64872 16.3557 4.64872 16.3557 1.98149ZM17.0225 6.64914 17.0225 9.31636 16.3557 9.31636 16.3557 6.64914ZM17.0225 11.3168 17.0225 13.984 16.3557 13.984 16.3557 11.3168ZM17.0225 15.9844 17.0225 18.6517 16.3557 18.6517 16.3557 15.9844ZM17.0225 20.6521 17.0225 23.3193 16.3557 23.3193 16.3557 20.6521ZM17.0225 25.3197 17.0225 27.9869 16.3557 27.9869 16.3557 25.3197ZM17.0225 29.9874 17.0225 32.6546 16.3557 32.6546 16.3557 29.9874ZM17.0225 34.655 17.0225 37.3222 16.3557 37.3222 16.3557 34.655ZM17.0225 39.3227 17.0225 41.9899 16.3557 41.9899 16.3557 39.3227ZM17.0225 43.9903 17.0225 46.6575 16.3557 46.6575 16.3557 43.9903ZM17.0225 48.658 17.0225 51.3252 16.3557 51.3252 16.3557 48.658ZM17.0225 53.3256 17.0225 55.9928 16.3557 55.9928 16.3557 53.3256ZM17.0225 57.9932 17.0225 60.6605 16.3557 60.6605 16.3557 57.9932ZM17.0225 62.6609 17.0225 65.3281 16.3557 65.3281 16.3557 62.6609ZM17.0225 67.3285 17.0225 69.9958 16.3557 69.9958 16.3557 67.3285ZM17.0225 71.9962 17.0225 74.6634 16.3557 74.6634 16.3557 71.9962ZM17.0225 76.6638 17.0225 79.3311 16.3557 79.3311 16.3557 76.6638ZM17.0225 81.3315 17.0225 83.9987 16.3557 83.9987 16.3557 81.3315ZM18.037 84.3179 20.7042 84.3179 20.7042 84.9847 18.037 84.9847ZM19.8381 80.6504 27.8398 84.6513 19.8381 88.6521Z" transform="matrix(1 0 0 -1.00021 303.5 230.2)"/><rect x="176.5" y="304.564" width="132" height="81.017" stroke="#70AD47" stroke-width="1.33361" stroke-miterlimit="8" fill="#E2F0D9"/><text font-family="Calibri,Calibri_MSFontService,sans-serif" font-weight="700" font-size="15" transform="matrix(1 0 0 1.00021 219.334 323)">Goal(s)</text><text font-family="Calibri,Calibri_MSFontService,sans-serif" font-weight="400" font-size="13" transform="matrix(1 0 0 1.00021 222.414 339)">(LOINC)</text><rect x="181" y="349.073" width="122" height="29.0061" fill="#C5E0B4"/><text font-family="Calibri,Calibri_MSFontService,sans-serif" font-weight="400" font-size="13" transform="matrix(1 0 0 1.00021 190.771 360)">Target, date, status,</text><text font-family="Calibri,Calibri_MSFontService,sans-serif" font-weight="400" font-size="13" transform="matrix(1 0 0 1.00021 190.771 375)">notes, etc.</text><rect x="641.5" y="66.514" width="132" height="172.036" stroke="#A6A6A6" stroke-width="1.33361" stroke-miterlimit="8" fill="#F2F2F2"/><text font-family="Calibri,Calibri_MSFontService,sans-serif" font-weight="700" font-size="15" transform="matrix(1 0 0 1.00021 673.372 85)">Diagnostic</text><text font-family="Calibri,Calibri_MSFontService,sans-serif" font-weight="700" font-size="15" transform="matrix(1 0 0 1.00021 684.875 104)">Report</text><text font-family="Calibri,Calibri_MSFontService,sans-serif" font-weight="400" font-size="13" transform="matrix(1 0 0 1.00021 692.963 120)">(PDF)</text><path d="M148.5 34.1738 175.362 34.1739 175.362 34.8409 148.5 34.8408ZM174.029 30.5057 182.03 34.5074 174.029 38.5091Z"/><path d="M303.5 34.1738 330.11 34.1739 330.11 34.8409 303.5 34.8408ZM328.776 30.5057 336.778 34.5074 328.776 38.5091Z"/><path d="M0.122802-0.309964 28.1432 10.7912 27.8976 11.4111-0.122802 0.309964ZM28.2542 6.89037 34.2197 13.5572 25.3069 14.3295Z" transform="matrix(1 0 0 -1.00021 457.5 34.0644)"/><path d="M613.626 20.1957 640.586 31.2299 640.333 31.8471 613.374 20.813ZM640.74 27.3297 646.631 34.0644 637.71 34.7369Z"/><path d="M0.115641-0.312706 27.9338 9.97469 27.7025 10.6001-0.115641 0.312706ZM27.955 6.07237 34.0722 12.6002 25.1796 13.5773Z" transform="matrix(1 0 0 -1.00021 612.5 47.1102)"/><rect x="492" y="141.03" width="122" height="26.0055" fill="#ADD395"/><text font-family="Calibri,Calibri_MSFontService,sans-serif" font-weight="700" font-size="13" transform="matrix(1 0 0 1.00021 501.681 159)">Activity</text><text font-family="Calibri,Calibri_MSFontService,sans-serif" font-weight="700" font-size="13" transform="matrix(1 0 0 1.00021 541.689 159)">-</text><text font-family="Calibri,Calibri_MSFontService,sans-serif" font-weight="700" font-size="13" transform="matrix(1 0 0 1.00021 545.523 159)">based</text><rect x="331" y="252.053" width="132" height="133.028" stroke="#FFC000" stroke-width="4.00084" stroke-miterlimit="8" fill="#FFF2CC"/><text font-family="Calibri,Calibri_MSFontService,sans-serif" font-weight="700" font-size="15" transform="matrix(1 0 0 1.00021 374.378 271)">Task(s)</text><rect x="336" y="281.059" width="122" height="97.0204" fill="#FFE699"/><text font-family="Calibri,Calibri_MSFontService,sans-serif" font-weight="700" font-size="13" transform="matrix(1 0 0 1.00021 345.399 296)">“Please Fulfill”</text><text font-family="Arial,Arial_MSFontService,sans-serif" font-weight="400" font-size="13" transform="matrix(1 0 0 1.00021 346.066 311)">•</text><text font-family="Calibri,Calibri_MSFontService,sans-serif" font-weight="400" font-size="13" transform="matrix(1 0 0 1.00021 355.135 311)">which provider?</text><text font-family="Arial,Arial_MSFontService,sans-serif" font-weight="400" font-size="13" transform="matrix(1 0 0 1.00021 346.066 326)">•</text><text font-family="Calibri,Calibri_MSFontService,sans-serif" font-weight="400" font-size="13" transform="matrix(1 0 0 1.00021 355.135 326)">accept / reject /</text><text font-family="Calibri,Calibri_MSFontService,sans-serif" font-weight="400" font-size="13" transform="matrix(1 0 0 1.00021 355.135 341)">in</text><text font-family="Calibri,Calibri_MSFontService,sans-serif" font-weight="400" font-size="13" transform="matrix(1 0 0 1.00021 364.637 341)">-</text><text font-family="Calibri,Calibri_MSFontService,sans-serif" font-weight="400" font-size="13" transform="matrix(1 0 0 1.00021 368.471 341)">progress /</text><text font-family="Calibri,Calibri_MSFontService,sans-serif" font-weight="400" font-size="13" transform="matrix(1 0 0 1.00021 355.135 356)">complete / etc.</text><text font-family="Arial,Arial_MSFontService,sans-serif" font-weight="400" font-size="13" transform="matrix(1 0 0 1.00021 346.066 371)">•</text><text font-family="Calibri,Calibri_MSFontService,sans-serif" font-weight="400" font-size="13" transform="matrix(1 0 0 1.00021 355.135 371)">notes</text><rect x="492" y="173.036" width="122" height="26.0055" fill="#ADD395"/><text font-family="Calibri,Calibri_MSFontService,sans-serif" font-weight="700" font-size="13" transform="matrix(1 0 0 1.00021 501.302 191)">Time</text><text font-family="Calibri,Calibri_MSFontService,sans-serif" font-weight="700" font-size="13" transform="matrix(1 0 0 1.00021 527.141 191)">-</text><text font-family="Calibri,Calibri_MSFontService,sans-serif" font-weight="700" font-size="13" transform="matrix(1 0 0 1.00021 530.975 191)">based</text><rect x="492" y="109.023" width="122" height="26.0055" fill="#ADD395"/><text font-family="Calibri,Calibri_MSFontService,sans-serif" font-weight="700" font-size="13" transform="matrix(1 0 0 1.00021 501.302 127)">USCDI</text><rect x="492" y="258.054" width="121" height="32.0067" fill="#B3C8F7"/><text font-family="Calibri,Calibri_MSFontService,sans-serif" font-weight="700" font-size="13" transform="matrix(1 0 0 1.00021 501.259 271)">“Please review”</text><text font-family="Calibri,Calibri_MSFontService,sans-serif" font-weight="400" font-size="13" transform="matrix(1 0 0 1.00021 501.259 286)">(video, page, etc.)</text><rect x="492" y="296.062" width="121" height="33.0069" fill="#B3C8F7"/><text font-family="Calibri,Calibri_MSFontService,sans-serif" font-weight="700" font-size="13" transform="matrix(1 0 0 1.00021 501.259 309)">“Please contact”</text><text font-family="Calibri,Calibri_MSFontService,sans-serif" font-weight="400" font-size="13" transform="matrix(1 0 0 1.00021 501.259 324)">(phone / visit)</text><path d="M0.333356-0.00563294 0.824183 29.0414 0.157472 29.0527-0.333356 0.00563294ZM4.46856 27.646 0.603486 35.7142-3.53197 27.7812Z" transform="matrix(-1 0 0 1.00021 398.104 217.546)"/><rect x="646" y="128.027" width="122" height="105.022" fill="#D9D9D9"/><text font-family="Calibri,Calibri_MSFontService,sans-serif" font-weight="700" font-size="13" transform="matrix(1 0 0 1.00021 655.831 147)">Intervention</text><text font-family="Calibri,Calibri_MSFontService,sans-serif" font-weight="700" font-size="13" transform="matrix(1 0 0 1.00021 655.831 162)">Report</text><text font-family="Arial,Arial_MSFontService,sans-serif" font-weight="400" font-size="13" transform="matrix(1 0 0 1.00021 656.497 177)">•</text><text font-family="Calibri,Calibri_MSFontService,sans-serif" font-weight="400" font-size="13" transform="matrix(1 0 0 1.00021 665.566 177)">What was done?</text><text font-family="Arial,Arial_MSFontService,sans-serif" font-weight="400" font-size="13" transform="matrix(1 0 0 1.00021 656.497 192)">•</text><text font-family="Calibri,Calibri_MSFontService,sans-serif" font-weight="400" font-size="13" transform="matrix(1 0 0 1.00021 665.566 192)">Was it successful?</text><text font-family="Arial,Arial_MSFontService,sans-serif" font-weight="400" font-size="13" transform="matrix(1 0 0 1.00021 656.497 208)">•</text><text font-family="Calibri,Calibri_MSFontService,sans-serif" font-weight="400" font-size="13" transform="matrix(1 0 0 1.00021 665.566 208)">What should</text><text font-family="Calibri,Calibri_MSFontService,sans-serif" font-weight="400" font-size="13" transform="matrix(1 0 0 1.00021 665.566 223)">happen next?</text><path d="M242.833 275.558 242.833 278.226 242.167 278.226 242.167 275.558ZM242.833 280.227 242.833 282.894 242.167 282.894 242.167 280.227ZM242.833 284.895 242.833 287.563 242.167 287.563 242.167 284.895ZM242.833 289.564 242.833 292.232 242.167 292.232 242.167 289.564ZM242.833 294.232 242.834 296.9 242.167 296.9 242.167 294.232ZM246.501 296.202 242.5 304.205 238.499 296.202Z"/><path d="M457.618 34.1954 484.66 44.4366 484.424 45.0604 457.382 34.8192ZM484.712 40.5338 490.778 47.1102 481.878 48.0186Z"/><path d="M87.8335 271.557 87.8335 274.225 87.1666 274.225 87.1666 271.557ZM87.8335 276.226 87.8335 278.893 87.1667 278.893 87.1667 276.226ZM87.8335 280.894 87.8335 283.562 87.1667 283.562 87.1667 280.894ZM87.8335 285.563 87.8335 288.231 87.1667 288.231 87.1667 285.563ZM87.8335 290.232 87.8335 292.899 87.1667 292.899 87.1667 290.232ZM87.8335 294.9 87.8335 297.568 87.1667 297.568 87.1667 294.9ZM91.501 296.807 87.5002 304.81 83.4993 296.807Z"/><path d="M458.5 183.205 461.167 183.205 461.167 183.872 458.5 183.872ZM463.168 183.205 465.835 183.205 465.835 183.872 463.168 183.872ZM467.835 183.205 470.503 183.205 470.503 183.872 467.835 183.872ZM472.503 183.205 475.17 183.205 475.17 183.872 472.503 183.872ZM476.477 184.566 476.477 187.233 475.81 187.233 475.81 184.566ZM476.477 189.234 476.477 191.902 475.81 191.902 475.81 189.234ZM476.477 193.903 476.477 196.571 475.81 196.571 475.81 193.903ZM476.477 198.572 476.477 201.239 475.81 201.239 475.81 198.572ZM476.477 203.24 476.477 205.908 475.81 205.908 475.81 203.24ZM476.477 207.909 476.477 210.577 475.81 210.577 475.81 207.909ZM476.477 212.577 476.477 212.787 476.144 212.454 478.601 212.454 478.601 213.121 475.81 213.121 475.81 212.577ZM480.601 212.454 483.269 212.454 483.269 213.121 480.601 213.121ZM485.269 212.454 487.936 212.454 487.936 213.121 485.269 213.121ZM489.937 212.454 492.604 212.454 492.604 213.121 489.937 213.121ZM494.604 212.454 497.272 212.454 497.272 213.121 494.604 213.121ZM499.272 212.454 501.939 212.454 501.939 213.121 499.272 213.121ZM503.94 212.454 506.607 212.454 506.607 213.121 503.94 213.121ZM508.607 212.454 511.275 212.454 511.275 213.121 508.607 213.121ZM513.275 212.454 515.942 212.454 515.942 213.121 513.275 213.121ZM517.943 212.454 520.61 212.454 520.61 213.121 517.943 213.121ZM522.61 212.454 525.278 212.454 525.278 213.121 522.61 213.121ZM527.278 212.454 529.945 212.454 529.945 213.121 527.278 213.121ZM531.946 212.454 534.613 212.454 534.613 213.121 531.946 213.121ZM536.613 212.454 539.28 212.454 539.28 213.121 536.613 213.121ZM541.281 212.454 543.948 212.454 543.948 213.121 541.281 213.121ZM545.948 212.454 548.616 212.454 548.616 213.121 545.948 213.121ZM550.616 212.454 553.283 212.454 553.283 213.121 550.616 213.121ZM555.284 212.454 557.951 212.454 557.951 213.121 555.284 213.121ZM559.951 212.454 562.619 212.454 562.619 213.121 559.951 213.121ZM564.619 212.454 567.286 212.454 567.286 213.121 564.619 213.121ZM569.287 212.454 571.954 212.454 571.954 213.121 569.287 213.121ZM573.954 212.454 576.622 212.454 576.622 213.121 573.954 213.121ZM578.622 212.454 581.289 212.454 581.289 213.121 578.622 213.121ZM583.29 212.454 585.957 212.454 585.957 213.121 583.29 213.121ZM587.957 212.454 590.625 212.454 590.625 213.121 587.957 213.121ZM592.625 212.454 595.292 212.454 595.292 213.121 592.625 213.121ZM597.293 212.454 599.96 212.454 599.96 213.121 597.293 213.121ZM601.96 212.454 604.628 212.454 604.628 213.121 601.96 213.121ZM606.628 212.454 609.295 212.454 609.295 213.121 606.628 213.121ZM611.296 212.454 613.963 212.454 613.963 213.121 611.296 213.121ZM615.963 212.454 618.63 212.454 618.63 213.121 615.963 213.121ZM620.631 212.454 623.298 212.454 623.298 213.121 620.631 213.121ZM625.299 212.454 627.966 212.454 627.966 213.121 625.299 213.121ZM629.966 212.454 632.633 212.454 632.633 213.121 629.966 213.121ZM633.259 208.786 641.261 212.787 633.259 216.789Z"/><path d="M0-0.333403 2.66723-0.333403 2.66723 0.333403 0 0.333403ZM4.66765-0.333403 7.33487-0.333403 7.33487 0.333403 4.66765 0.333403ZM9.33529-0.333403 12.0025-0.333403 12.0025 0.333403 9.33529 0.333403ZM14.0029-0.333403 16.6702-0.333403 16.6702 0.333403 14.0029 0.333403ZM18.6706-0.333403 21.3378-0.333403 21.3378 0.333403 18.6706 0.333403ZM23.3382-0.333403 26.0055-0.333403 26.0055 0.333403 23.3382 0.333403ZM28.0059-0.333403 29.1026-0.333403 29.1026 1.90392 28.4358 1.90392 28.4358 0 28.7692 0.333403 28.0059 0.333403ZM29.1026 3.90434 29.1026 6.57157 28.4358 6.57157 28.4358 3.90434ZM29.1026 8.57199 29.1026 11.2392 28.4358 11.2392 28.4358 8.57199ZM29.1026 13.2396 29.1026 15.9069 28.4358 15.9069 28.4358 13.2396ZM29.1026 17.9073 29.1026 20.5745 28.4358 20.5745 28.4358 17.9073ZM29.1026 22.5749 29.1026 25.2422 28.4358 25.2422 28.4358 22.5749ZM29.1026 27.2426 29.1026 29.9098 28.4358 29.9098 28.4358 27.2426ZM29.1026 31.9102 29.1026 34.5774 28.4358 34.5774 28.4358 31.9102ZM29.1026 36.5779 29.1026 39.2451 28.4358 39.2451 28.4358 36.5779ZM29.1026 41.2455 29.1026 43.9127 28.4358 43.9127 28.4358 41.2455ZM29.1026 45.9132 29.1026 48.5804 28.4358 48.5804 28.4358 45.9132ZM29.1026 50.5808 29.1026 53.248 28.4358 53.248 28.4358 50.5808ZM29.1026 55.2484 29.1026 57.9157 28.4358 57.9157 28.4358 55.2484ZM29.1026 59.9161 29.1026 62.5833 28.4358 62.5833 28.4358 59.9161ZM29.1026 64.5837 29.1026 67.251 28.4358 67.251 28.4358 64.5837ZM29.1026 69.2514 29.1026 71.9186 28.4358 71.9186 28.4358 69.2514ZM29.1026 73.919 29.1026 76.5863 28.4358 76.5863 28.4358 73.919ZM29.1026 78.5867 29.1026 81.2539 28.4358 81.2539 28.4358 78.5867ZM29.1026 83.2543 29.1026 85.9216 28.4358 85.9216 28.4358 83.2543ZM29.1026 87.922 29.1026 90.5892 28.4358 90.5892 28.4358 87.922ZM29.1026 92.5896 29.1026 95.2568 28.4358 95.2568 28.4358 92.5896ZM29.1026 97.2573 29.1026 97.6257 28.7692 97.2923 31.0679 97.2923 31.0679 97.9591 28.4358 97.9591 28.4358 97.2573ZM33.0684 97.2923 35.7356 97.2923 35.7356 97.9591 33.0684 97.9591ZM37.736 97.2923 40.4032 97.2923 40.4032 97.9591 37.736 97.9591ZM42.4036 97.2923 43.4324 97.2923 43.4324 97.9591 42.4036 97.9591ZM42.0988 93.6249 50.1005 97.6257 42.0988 101.627Z" transform="matrix(1 0 0 -1.00021 131.5 241.176)"/><path d="M0-0.333403 2.66723-0.333403 2.66723 0.333403 0 0.333403ZM4.66765-0.333403 7.33487-0.333403 7.33487 0.333403 4.66765 0.333403ZM9.33529-0.333403 12.2255-0.333403 12.2255 0.110386 11.5587 0.110386 11.5587 0 11.8921 0.333403 9.33529 0.333403ZM12.2255 2.11081 12.2255 4.77803 11.5587 4.77803 11.5587 2.11081ZM12.2255 6.77845 12.2255 9.44568 11.5587 9.44568 11.5587 6.77845ZM12.2255 11.4461 12.2255 14.1133 11.5587 14.1133 11.5587 11.4461ZM12.2255 16.1137 12.2255 18.781 11.5587 18.781 11.5587 16.1137ZM12.2255 20.7814 12.2255 23.4486 11.5587 23.4486 11.5587 20.7814ZM12.2255 25.449 12.2255 28.1163 11.5587 28.1163 11.5587 25.449ZM12.2255 30.1167 12.2255 32.7839 11.5587 32.7839 11.5587 30.1167ZM12.2255 34.7843 12.2255 37.4516 11.5587 37.4516 11.5587 34.7843ZM12.2255 39.452 12.2255 42.1192 11.5587 42.1192 11.5587 39.452ZM12.2255 44.1196 12.2255 46.7869 11.5587 46.7869 11.5587 44.1196ZM12.2255 48.7873 12.2255 51.4545 11.5587 51.4545 11.5587 48.7873ZM12.2255 53.4549 12.2255 56.1221 11.5587 56.1221 11.5587 53.4549ZM12.2255 58.1226 12.2255 60.7898 11.5587 60.7898 11.5587 58.1226ZM12.2255 62.7902 12.2255 65.4574 11.5587 65.4574 11.5587 62.7902ZM12.2255 67.4579 12.2255 70.1251 11.5587 70.1251 11.5587 67.4579ZM12.2255 72.1255 12.2255 74.7927 11.5587 74.7927 11.5587 72.1255ZM12.2255 76.7932 12.2255 79.4604 11.5587 79.4604 11.5587 76.7932ZM12.2255 81.4608 12.2255 84.128 11.5587 84.128 11.5587 81.4608ZM12.2255 86.1284 12.2255 88.7957 11.5587 88.7957 11.5587 86.1284ZM12.2255 90.7961 12.2255 93.4633 11.5587 93.4633 11.5587 90.7961ZM12.2255 95.4637 12.2255 98.131 11.5587 98.131 11.5587 95.4637ZM12.2255 100.131 12.2255 102.799 11.5587 102.799 11.5587 100.131ZM12.2255 104.799 12.2255 107.466 11.5587 107.466 11.5587 104.799ZM12.2255 109.467 12.2255 112.134 11.5587 112.134 11.5587 109.467ZM12.2255 114.134 12.2255 115.407 11.8921 115.074 13.2863 115.074 13.2863 115.741 11.5587 115.741 11.5587 114.134ZM15.2867 115.074 17.9539 115.074 17.9539 115.741 15.2867 115.741ZM19.9543 115.074 21.4239 115.074 21.4239 115.741 19.9543 115.741ZM20.0903 111.407 28.092 115.407 20.0903 119.408Z" transform="matrix(1 0 0 -1.00021 153.5 344.98)"/><path d="M87.8335 386.189 87.8335 388.857 87.1666 388.857 87.1666 386.189ZM87.8335 390.858 87.8335 393.526 87.1666 393.526 87.1666 390.858ZM87.8335 395.526 87.8335 396.422 87.5 396.089 89.2719 396.089 89.2719 396.755 87.1666 396.755 87.1666 395.526ZM91.2723 396.089 93.9395 396.089 93.9395 396.755 91.2723 396.755ZM95.9399 396.089 98.6072 396.089 98.6072 396.755 95.9399 396.755ZM100.608 396.089 103.275 396.089 103.275 396.755 100.608 396.755ZM105.275 396.089 107.942 396.089 107.942 396.755 105.275 396.755ZM109.943 396.089 112.61 396.089 112.61 396.755 109.943 396.755ZM114.611 396.089 117.278 396.089 117.278 396.755 114.611 396.755ZM119.278 396.089 121.945 396.089 121.945 396.755 119.278 396.755ZM123.946 396.089 126.613 396.089 126.613 396.755 123.946 396.755ZM128.613 396.089 131.281 396.089 131.281 396.755 128.613 396.755ZM133.281 396.089 135.948 396.089 135.948 396.755 133.281 396.755ZM137.949 396.089 140.616 396.089 140.616 396.755 137.949 396.755ZM142.616 396.089 145.284 396.089 145.284 396.755 142.616 396.755ZM147.284 396.089 149.951 396.089 149.951 396.755 147.284 396.755ZM151.952 396.089 154.619 396.089 154.619 396.755 151.952 396.755ZM156.619 396.089 159.287 396.089 159.287 396.755 156.619 396.755ZM161.287 396.089 163.954 396.089 163.954 396.755 161.287 396.755ZM165.955 396.089 168.622 396.089 168.622 396.755 165.955 396.755ZM170.622 396.089 173.29 396.089 173.29 396.755 170.622 396.755ZM175.29 396.089 177.957 396.089 177.957 396.755 175.29 396.755ZM179.958 396.089 182.625 396.089 182.625 396.755 179.958 396.755ZM184.625 396.089 187.292 396.089 187.292 396.755 184.625 396.755ZM189.293 396.089 191.96 396.089 191.96 396.755 189.293 396.755ZM193.961 396.089 196.628 396.089 196.628 396.755 193.961 396.755ZM198.628 396.089 201.295 396.089 201.295 396.755 198.628 396.755ZM203.296 396.089 205.963 396.089 205.963 396.755 203.296 396.755ZM207.963 396.089 210.631 396.089 210.631 396.755 207.963 396.755ZM212.631 396.089 215.298 396.089 215.298 396.755 212.631 396.755ZM217.299 396.089 219.966 396.089 219.966 396.755 217.299 396.755ZM221.966 396.089 224.634 396.089 224.634 396.755 221.966 396.755ZM226.634 396.089 229.301 396.089 229.301 396.755 226.634 396.755ZM231.302 396.089 233.969 396.089 233.969 396.755 231.302 396.755ZM235.969 396.089 238.637 396.089 238.637 396.755 235.969 396.755ZM240.637 396.089 243.304 396.089 243.304 396.755 240.637 396.755ZM245.305 396.089 247.972 396.089 247.972 396.755 245.305 396.755ZM249.972 396.089 252.639 396.089 252.639 396.755 249.972 396.755ZM254.64 396.089 257.307 396.089 257.307 396.755 254.64 396.755ZM259.308 396.089 261.975 396.089 261.975 396.755 259.308 396.755ZM263.975 396.089 266.642 396.089 266.642 396.755 263.975 396.755ZM268.643 396.089 271.31 396.089 271.31 396.755 268.643 396.755ZM273.31 396.089 275.978 396.089 275.978 396.755 273.31 396.755ZM277.978 396.089 280.645 396.089 280.645 396.755 277.978 396.755ZM282.646 396.089 285.313 396.089 285.313 396.755 282.646 396.755ZM287.313 396.089 289.981 396.089 289.981 396.755 287.313 396.755ZM291.981 396.089 294.648 396.089 294.648 396.755 291.981 396.755ZM296.649 396.089 299.316 396.089 299.316 396.755 296.649 396.755ZM301.316 396.089 303.984 396.089 303.984 396.755 301.316 396.755ZM305.984 396.089 308.651 396.089 308.651 396.755 305.984 396.755ZM310.652 396.089 313.319 396.089 313.319 396.755 310.652 396.755ZM315.319 396.089 317.987 396.089 317.987 396.755 315.319 396.755ZM319.987 396.089 320.115 396.089 319.782 396.422 319.782 393.882 320.448 393.882 320.448 396.755 319.987 396.755ZM319.782 391.881 319.782 389.214 320.448 389.214 320.448 391.881ZM319.782 387.213 319.782 384.545 320.448 384.545 320.448 387.213ZM319.782 382.544 319.782 379.876 320.448 379.876 320.448 382.544ZM319.782 377.876 319.782 375.208 320.448 375.208 320.448 377.876ZM319.782 373.207 319.782 370.539 320.448 370.539 320.448 373.207ZM319.782 368.538 319.782 365.871 320.448 365.871 320.448 368.538ZM319.782 363.87 319.782 361.202 320.448 361.202 320.448 363.87ZM319.782 359.201 319.782 356.533 320.448 356.533 320.448 359.201ZM319.782 354.532 319.782 351.865 320.448 351.865 320.448 354.532ZM319.782 349.864 319.782 347.196 320.448 347.196 320.448 349.864ZM319.782 345.195 319.782 342.527 320.448 342.527 320.448 345.195ZM319.782 340.527 319.782 337.859 320.448 337.859 320.448 340.527ZM319.782 335.858 319.782 333.19 320.448 333.19 320.448 335.858ZM319.782 331.189 319.782 328.522 320.448 328.522 320.448 331.189ZM319.782 326.521 319.782 323.853 320.448 323.853 320.448 326.521ZM319.782 321.852 319.782 319.184 320.448 319.184 320.448 321.852ZM319.782 317.183 319.782 314.516 320.448 314.516 320.448 317.183ZM319.782 312.515 319.782 309.847 320.448 309.847 320.448 312.515ZM319.782 307.846 319.782 305.178 320.448 305.178 320.448 307.846ZM319.782 303.178 319.782 300.51 320.448 300.51 320.448 303.178ZM319.782 298.509 319.782 295.841 320.448 295.841 320.448 298.509ZM319.782 293.84 319.782 291.173 320.448 291.173 320.448 293.84ZM319.782 289.172 319.782 286.504 320.448 286.504 320.448 289.172ZM319.782 284.503 319.782 281.835 320.448 281.835 320.448 284.503ZM319.782 279.834 319.782 277.167 320.448 277.167 320.448 279.834ZM319.782 275.166 319.782 272.498 320.448 272.498 320.448 275.166ZM319.782 270.497 319.782 267.829 320.448 267.829 320.448 270.497ZM319.782 265.829 319.782 263.161 320.448 263.161 320.448 265.829ZM319.782 261.16 319.782 258.492 320.448 258.492 320.448 261.16ZM319.782 256.491 319.782 253.824 320.448 253.824 320.448 256.491ZM319.782 251.823 319.782 249.155 320.448 249.155 320.448 251.823ZM319.782 247.154 319.782 244.486 320.448 244.486 320.448 247.154ZM319.782 242.485 319.782 239.818 320.448 239.818 320.448 242.485ZM319.782 237.817 319.782 235.149 320.448 235.149 320.448 237.817ZM319.782 233.148 319.782 230.48 320.448 230.48 320.448 233.148ZM319.782 228.48 319.782 225.812 320.448 225.812 320.448 228.48ZM319.782 223.811 319.782 221.143 320.448 221.143 320.448 223.811ZM319.782 219.142 319.782 216.475 320.448 216.475 320.448 219.142ZM319.782 214.474 319.782 211.806 320.448 211.806 320.448 214.474ZM319.782 209.805 319.782 207.137 320.448 207.137 320.448 209.805ZM319.782 205.136 319.782 202.469 320.448 202.469 320.448 205.136ZM319.782 200.468 319.782 197.8 320.448 197.8 320.448 200.468ZM319.782 195.799 319.782 193.131 320.448 193.131 320.448 195.799ZM319.782 191.131 319.782 188.463 320.448 188.463 320.448 191.131ZM319.782 186.462 319.782 183.794 320.448 183.794 320.448 186.462ZM319.782 181.793 319.782 179.125 320.448 179.125 320.448 181.793ZM319.782 177.125 319.782 174.457 320.448 174.457 320.448 177.125ZM319.782 172.456 319.782 169.788 320.448 169.788 320.448 172.456ZM319.782 167.787 319.782 165.12 320.448 165.12 320.448 167.787ZM319.782 163.119 319.782 160.451 320.448 160.451 320.448 163.119ZM319.782 158.45 319.782 155.782 320.448 155.782 320.448 158.45ZM319.782 153.782 319.782 151.114 320.448 151.114 320.448 153.782ZM319.782 149.113 319.782 146.445 320.448 146.445 320.448 149.113ZM321.201 145.197 323.868 145.197 323.868 145.864 321.201 145.864ZM323.148 141.529 331.15 145.53 323.148 149.532Z"/><text font-family="Calibri,Calibri_MSFontService,sans-serif" font-weight="400" font-size="13" transform="matrix(1 0 0 1.00021 88.5241 282)">No</text><text font-family="Calibri,Calibri_MSFontService,sans-serif" font-weight="400" font-size="13" transform="matrix(1 0 0 1.00021 128.439 238)">Yes</text><text font-family="Calibri,Calibri_MSFontService,sans-serif" font-weight="700" font-size="13" transform="matrix(1 0 0 1.00021 650.525 261)">Relationships</text><text font-family="Calibri,Calibri_MSFontService,sans-serif" font-weight="400" font-size="13" transform="matrix(1 0 0 1.00021 670.129 276)">Mandatory</text><text font-family="Calibri,Calibri_MSFontService,sans-serif" font-weight="400" font-size="13" transform="matrix(1 0 0 1.00021 670.129 291)">Optional</text><text font-family="Calibri,Calibri_MSFontService,sans-serif" font-weight="700" font-size="13" transform="matrix(1 0 0 1.00021 650.525 321)">Functionality</text><text font-family="Calibri,Calibri_MSFontService,sans-serif" font-weight="400" font-size="13" transform="matrix(1 0 0 1.00021 659.46 347)">Must support</text><text font-family="Calibri,Calibri_MSFontService,sans-serif" font-weight="400" font-size="13" transform="matrix(1 0 0 1.00021 659.46 378)">Should Support</text><path d="M646.5 273.224 661.477 273.224 661.477 273.891 646.5 273.891ZM660.144 269.556 668.146 273.558 660.144 277.559Z"/><path d="M646.5 288.227 649.167 288.227 649.167 288.894 646.5 288.894ZM651.168 288.227 653.835 288.227 653.835 288.894 651.168 288.894ZM655.835 288.227 658.503 288.227 658.503 288.894 655.835 288.894ZM660.503 288.227 661.477 288.227 661.477 288.894 660.503 288.894ZM660.144 284.559 668.146 288.561 660.144 292.562Z"/><rect x="655" y="334.07" width="81" height="18.0038" stroke="#000000" stroke-width="4.00084" stroke-miterlimit="8" fill="none"/><rect x="655.5" y="365.577" width="87" height="18.0038" stroke="#000000" stroke-width="1.33361" stroke-miterlimit="8" fill="none"/><rect x="492" y="334.07" width="122" height="46.0096" fill="#B3C8F7"/><text font-family="Calibri,Calibri_MSFontService,sans-serif" font-weight="700" font-size="13" transform="matrix(1 0 0 1.00021 501.285 346)">“Complete form”</text><text font-family="Calibri,Calibri_MSFontService,sans-serif" font-weight="400" font-size="13" transform="matrix(1 0 0 1.00021 501.285 361)">Questions,</text><text font-family="Calibri,Calibri_MSFontService,sans-serif" font-weight="400" font-size="13" transform="matrix(1 0 0 1.00021 501.285 376)">feedback, etc.</text></g></svg>